HIERARCHY
ROOT hip
{
  OFFSET 0 0 0
  CHANNELS 6 Xposition Yposition Zposition Zrotation Yrotation Xrotation
  JOINT abdomen
  {
    OFFSET 0 20.6881 -0.73152
    CHANNELS 3 Zrotation Xrotation Yrotation
    JOINT chest
    {
      OFFSET 0 11.7043 -0.48768
      CHANNELS 3 Zrotation Xrotation Yrotation
      JOINT neck
      {
        OFFSET 0 22.1894 -2.19456
        CHANNELS 3 Zrotation Xrotation Yrotation
        JOINT head
        {
          OFFSET -0.24384 7.07133 1.2192
          CHANNELS 3 Zrotation Xrotation Yrotation
          JOINT leftEye
          {
            OFFSET 4.14528 8.04674 8.04672
            CHANNELS 3 Zrotation Xrotation Yrotation
            End Site
            {
              OFFSET 1 0 0
            }
          }
          JOINT rightEye
          {
            OFFSET -3.6576 8.04674 8.04672
            CHANNELS 3 Zrotation Xrotation Yrotation
            End Site
            {
              OFFSET 1 0 0
            }
          }
        }
      }
      JOINT rCollar
      {
        OFFSET -2.68224 19.2634 -4.8768
        CHANNELS 3 Zrotation Xrotation Yrotation
        JOINT rShldr
        {
          OFFSET -8.77824 -1.95073 1.46304
          CHANNELS 3 Zrotation Xrotation Yrotation
          JOINT rForeArm
          {
            OFFSET -28.1742 -1.7115 0.48768
            CHANNELS 3 Zrotation Xrotation Yrotation
            JOINT rHand
            {
              OFFSET -22.5879 0.773209 7.07136
              CHANNELS 3 Zrotation Xrotation Yrotation
              JOINT rThumb1
              {
                OFFSET -1.2192 -0.487915 3.41376
                CHANNELS 3 Zrotation Xrotation Yrotation
                JOINT rThumb2
                {
                  OFFSET -3.37035 -0.52449 3.41376
                  CHANNELS 3 Zrotation Xrotation Yrotation
                  End Site
                  {
                    OFFSET -1.78271 -1.18214 1.43049
                  }
                }
              }
              JOINT rIndex1
              {
                OFFSET -7.75947 0.938293 5.60832
                CHANNELS 3 Zrotation Xrotation Yrotation
                JOINT rIndex2
                {
                  OFFSET -2.54057 -0.884171 1.56538
                  CHANNELS 3 Zrotation Xrotation Yrotation
                  End Site
                  {
                    OFFSET -1.62519 -0.234802 1.16502
                  }
                }
              }
              JOINT rMid1
              {
                OFFSET -8.24714 1.18213 3.41376
                CHANNELS 3 Zrotation Xrotation Yrotation
                JOINT rMid2
                {
                  OFFSET -3.10165 -0.590103 1.0647
                  CHANNELS 3 Zrotation Xrotation Yrotation
                  End Site
                  {
                    OFFSET -2.48547 -0.328903 0.83742
                  }
                }
              }
              JOINT rRing1
              {
                OFFSET -8.82822 0.546677 1.51678
                CHANNELS 3 Zrotation Xrotation Yrotation
                JOINT rRing2
                {
                  OFFSET -2.60934 -0.819778 -0.0198488
                  CHANNELS 3 Zrotation Xrotation Yrotation
                  End Site
                  {
                    OFFSET -2.33842 -0.294052 0.168128
                  }
                }
              }
              JOINT rPinky1
              {
                OFFSET -8.27202 -0.0477905 -0.4584
                CHANNELS 3 Zrotation Xrotation Yrotation
                JOINT rPinky2
                {
                  OFFSET -1.82734 -0.647385 -0.700984
                  CHANNELS 3 Zrotation Xrotation Yrotation
                  End Site
                  {
                    OFFSET -1.69225 -0.51767 -0.607171
                  }
                }
              }
            }
          }
        }
      }
      JOINT lCollar
      {
        OFFSET 2.68224 19.2634 -4.8768
        CHANNELS 3 Zrotation Xrotation Yrotation
        JOINT lShldr
        {
          OFFSET 8.77824 -1.95073 1.46304
          CHANNELS 3 Zrotation Xrotation Yrotation
          JOINT lForeArm
          {
            OFFSET 28.1742 -1.7115 0.48768
            CHANNELS 3 Zrotation Xrotation Yrotation
            JOINT lHand
            {
              OFFSET 22.5879 0.773209 7.07136
              CHANNELS 3 Zrotation Xrotation Yrotation
              JOINT lThumb1
              {
                OFFSET 1.2192 -0.487915 3.41376
                CHANNELS 3 Zrotation Xrotation Yrotation
                JOINT lThumb2
                {
                  OFFSET 3.37035 -0.52449 3.41376
                  CHANNELS 3 Zrotation Xrotation Yrotation
                  End Site
                  {
                    OFFSET 1.78271 -1.18214 1.43049
                  }
                }
              }
              JOINT lIndex1
              {
                OFFSET 7.75947 0.938293 5.60832
                CHANNELS 3 Zrotation Xrotation Yrotation
                JOINT lIndex2
                {
                  OFFSET 2.54057 -0.884171 1.56538
                  CHANNELS 3 Zrotation Xrotation Yrotation
                  End Site
                  {
                    OFFSET 1.62519 -0.234802 1.16502
                  }
                }
              }
              JOINT lMid1
              {
                OFFSET 8.24714 1.18213 3.41376
                CHANNELS 3 Zrotation Xrotation Yrotation
                JOINT lMid2
                {
                  OFFSET 3.10165 -0.590103 1.0647
                  CHANNELS 3 Zrotation Xrotation Yrotation
                  End Site
                  {
                    OFFSET 2.48547 -0.328903 0.83742
                  }
                }
              }
              JOINT lRing1
              {
                OFFSET 8.82822 0.546677 1.51678
                CHANNELS 3 Zrotation Xrotation Yrotation
                JOINT lRing2
                {
                  OFFSET 2.60934 -0.819778 -0.0198488
                  CHANNELS 3 Zrotation Xrotation Yrotation
                  End Site
                  {
                    OFFSET 2.33842 -0.294052 0.168128
                  }
                }
              }
              JOINT lPinky1
              {
                OFFSET 8.27202 -0.0477905 -0.4584
                CHANNELS 3 Zrotation Xrotation Yrotation
                JOINT lPinky2
                {
                  OFFSET 1.82734 -0.647385 -0.700984
                  CHANNELS 3 Zrotation Xrotation Yrotation
                  End Site
                  {
                    OFFSET 1.69225 -0.51767 -0.607171
                  }
                }
              }
            }
          }
        }
      }
    }
  }
  JOINT rButtock
  {
    OFFSET -8.77824 4.35084 1.2192
    CHANNELS 3 Zrotation Xrotation Yrotation
    JOINT rThigh
    {
      OFFSET 0 -1.70687 -2.19456
      CHANNELS 3 Zrotation Xrotation Yrotation
      JOINT rShin
      {
        OFFSET 0 -36.8199 0.73152
        CHANNELS 3 Zrotation Xrotation Yrotation
        JOINT rFoot
        {
          OFFSET 0.73152 -45.1104 -5.12064
          CHANNELS 3 Zrotation Xrotation Yrotation
          End Site
          {
            OFFSET -1.1221 -3.69964 12.103
          }
        }
      }
    }
  }
  JOINT lButtock
  {
    OFFSET 8.77824 4.35084 1.2192
    CHANNELS 3 Zrotation Xrotation Yrotation
    JOINT lThigh
    {
      OFFSET 0 -1.70687 -2.19456
      CHANNELS 3 Zrotation Xrotation Yrotation
      JOINT lShin
      {
        OFFSET 0 -36.8199 0.73152
        CHANNELS 3 Zrotation Xrotation Yrotation
        JOINT lFoot
        {
          OFFSET -0.73152 -45.1104 -5.12064
          CHANNELS 3 Zrotation Xrotation Yrotation
          End Site
          {
            OFFSET 1.1221 -3.69964 12.103
          }
        }
      }
    }
  }
}
MOTION
Frames:	6
Frame Time:	0.03333
10.3278 68.2127 -60.7732 -162.770493 31.971827 -174.39469 13.36416 14.77666 -0.0 1.344645 -8.646836 5.564947 6.417922 13.810034 53.028754 -23.137556 -15.77967 -40.421931 0.003432 -0.0 -0.001488 -0.002136 0.0 -0.00143 -40.040247 -86.056166 -61.570803 -176.327964 -41.967848 -126.394135 -130.522038 5.55323 -21.368575 -168.63433 -45.017865 161.358013 -10.203066 9.662292 2.405031 55.378098 -65.354799 -5.842797 19.56938 -35.040079 -5.986492 174.392634 -46.23547 101.858376 -166.119925 -24.039737 145.077048 11.472792 -24.908483 -1.148571 -75.40668 72.953099 93.420067 -80.912553 83.270907 89.841648 -138.443755 -6.230333 -135.659769 -25.356604 -40.327266 -27.018637 158.467619 -30.055276 -166.920978 -41.006214 -8.802367 50.585161 -5.733748 64.776658 -10.802926 102.381514 84.310724 -102.802261 85.829339 38.630424 -47.955499 -17.139036 -24.550226 -22.109501 -88.79167 -75.499822 -40.049412 9.379168 35.090471 -7.439329 -0.540856 -1.590099 0.293643 1.313218 12.638775 -2.16589 71.926005 72.973858 -89.771977 159.465549 -15.600092 -178.263798 145.256524 12.331896 141.896858 -1.213231 -2.670943 2.846099 -179.986722 75.748154 -0.009084 160.910584 72.955318 18.198378 3.638745 52.858842 -50.663245 154.735235 -8.899723 -0.594734 0.003929 0.000415 0.003929 59.156892 -56.956839 -180.0 56.750531 -51.130732 -62.198227 88.847896 -72.557647 -27.138214
10.0868 67.5425 -62.382400000000004 -162.863225 32.024621 -173.249257 11.029417 11.264561 74.389747 -5.531473 -5.448444 -68.719053 -11.073453 22.866735 -86.450785 37.543173 14.669618 98.69773 0.000351 0.0 0.001272 0.000282 0.0 0.0025 4.208424 -43.443061 -8.385027 110.542606 35.333688 -95.596925 -82.420952 -44.692549 65.606979 -168.845723 -59.645754 167.016078 -2.608336 2.554628 0.45722 -124.044588 -17.724467 110.554756 52.741579 -67.698979 9.66427 -3.963272 28.905637 4.574783 -0.57167 1.648361 0.321033 3.171167 0.194784 3.4e-05 -0.000257 -0.060873 -0.018937 11.531694 -40.161091 -4.888851 12.988564 44.344293 10.761385 -23.653442 -39.908849 -23.74335 130.41948 54.548659 -134.28667 44.486429 24.209111 23.887063 -169.791603 61.749469 156.752325 170.745245 62.951271 -169.77243 89.1362 38.426478 -50.29902 28.74603 -6.359482 -35.697967 155.192038 -24.300147 -122.143463 55.836073 56.797234 -41.005825 39.288076 53.366913 -32.876382 27.652352 51.05541 -23.074306 71.538758 -72.141604 88.495678 149.880471 -26.945617 179.964774 156.383355 53.734764 150.115216 156.653388 38.456068 146.477492 -0.000903 0.00055 -0.000452 -6.012956 -1.569972 -75.420073 -46.604323 21.465794 116.3912 -179.614298 -53.403771 93.517669 -0.0 -0.000969 -0.000401 62.108414 -55.371157 57.910701 57.523998 70.929019 81.813039 -120.301005 -10.896191 147.757155
9.919500000000001 67.3624 -63.5054 -163.673157 31.711399 -172.424489 12.775963 11.298517 -0.0 1.882633 -8.314971 5.937721 -1.253299 31.041249 -162.546828 7.577484 44.30054 176.207326 0.004472 -0.0 -0.002437 -0.001104 0.0 -0.001164 -149.850754 22.601575 154.913447 67.28587 -24.363097 93.155796 -2.884231 -50.167308 111.790833 -14.557388 -50.516205 -13.641049 -177.747818 -15.324033 89.570518 -77.873584 8.682149 24.562135 -6.245127 9.398064 3.86351 54.32677 -48.9929 12.173523 68.983875 -80.154043 40.578748 17.907538 -42.108534 0.081242 -0.021856 -1.806605 -0.567573 -149.841544 38.863908 164.843022 12.253467 41.424823 10.279423 -76.545346 -54.584239 -75.490219 82.877859 68.299543 -86.00054 -126.055164 2.606159 -177.130161 -85.530751 -56.902065 -65.787715 -169.989133 15.142004 -164.664832 103.19929 36.33071 -60.11136 -97.554288 -50.650253 -46.18151 -37.215396 -57.917943 0.643462 -167.925313 -53.565273 -98.108382 125.644684 49.840001 -115.273872 -3.336724 0.212465 -0.273172 145.120882 0.31084 179.22421 -9.362189 71.378074 -1.944024 -31.496655 83.083442 -6.662841 129.312758 -28.649859 126.163858 -0.000423 0.000597 -0.000423 -7.936148 -0.747727 -84.652019 -59.16052 13.186486 -85.654021 -127.550736 51.125939 -133.277325 -179.999879 75.749045 -0.0 -149.577797 2.037746 -0.0 55.319193 68.604941 42.131708 -148.108022 72.949142 67.569869
9.9003 67.17410000000001 -64.2429 -163.410546 31.098039 -171.653606 11.221012 8.319809 95.357154 -6.227125 -3.680447 -89.804007 -10.779021 19.148682 -68.982129 36.345003 3.860298 83.935572 0.003024 -0.0 -0.00477 0.004372 0.0 0.000674 -159.221292 -48.02868 170.414158 -59.170532 15.259341 4.116632 -12.261279 -18.70359 -155.83596 -154.322048 13.942217 139.170128 2.017531 -1.999896 -0.275631 1.704086 -2.874831 -2.798701 -151.353144 -17.158615 121.132654 -155.635216 -3.644645 119.009731 -0.970085 2.779276 0.555255 2.957337 0.846797 0.08278 -71.92564 72.973781 89.772015 5.544158 19.679049 -1.920499 7.92557 24.812096 7.002686 -159.792297 54.479743 -149.850261 44.929265 -86.28692 66.537766 -79.325011 11.923182 -4.076089 3.899573 6.339975 -12.484999 59.232519 82.051105 -65.464303 -102.158563 -51.172395 -46.988658 162.254495 -21.612106 -123.036795 83.733258 42.330225 -69.989679 85.859572 52.270684 -62.759369 12.84404 28.997126 -9.14876 -27.192984 -57.55513 -4.830065 71.926076 72.9747 -89.77151 158.793631 -26.832675 -179.925269 -31.073709 82.870361 -7.010252 -9.926858 26.435058 -5.138295 -0.006301 0.00101 -0.006301 -10.336953 0.223263 88.776141 58.407267 -9.605103 94.849028 -37.99729 57.081016 165.619397 179.998891 75.751216 0.000759 -148.727017 -0.191133 -90.31469 -77.602495 3.675824 -1.184212 52.666274 67.701404 20.536378
9.8394 66.9296 -64.81 -162.655481 30.718884 -171.045322 12.471944 9.254631 82.604266 -6.149767 -4.71667 -76.924188 7.886493 28.365938 147.801966 -23.972901 36.20968 -124.985776 0.000947 0.0 0.003671 0.000947 0.0 0.003671 0.07078 -0.427843 -0.094645 -107.351103 -4.573775 -143.881152 98.054132 -45.547182 -116.105382 -34.510694 23.50811 14.744215 6.463641 -6.452684 -0.635201 -19.090677 18.259211 12.953144 45.28193 -63.865646 4.306642 -170.771256 -35.966338 110.952525 -160.304202 -5.532409 143.067938 -13.642495 36.286587 11.089757 0.005098 1.770833 0.553683 -55.787279 -86.728338 -77.159361 -25.538372 -38.08719 -24.598876 -93.977762 -51.616893 -94.038689 6.042805 25.599073 -7.23465 96.350901 16.602529 -67.043402 175.007458 24.706385 169.978615 107.514052 83.748217 -110.032235 178.927079 -16.453826 -89.422505 171.869111 -8.372673 -94.420375 -37.214251 -57.918323 0.644494 -20.722179 -6.839304 4.754534 12.842978 28.997053 -9.150035 162.89118 -3.930778 -143.234649 145.112172 -0.668612 178.917858 -12.187461 40.3224 4.411359 144.705783 10.602684 141.40693 153.350059 29.738407 145.08199 179.975537 75.749212 0.016738 143.782192 74.076423 118.559238 53.668464 -10.548727 33.882009 78.631403 43.902954 174.262862 179.989791 75.75007 0.006985 -150.978446 -1.125699 87.971963 73.701558 -10.863134 -85.067912 -129.645133 -21.216901 14.118323
9.7851 66.7542 -65.28059999999999 -162.797565 30.200759 -170.36463 13.329065 6.696109 135.864741 -5.561956 1.067571 -130.181612 7.079734 29.759907 156.463948 -19.339724 40.315424 -134.317842 0.000992 0.0 0.005063 -0.000507 -0.0 0.000821 -147.671673 29.084806 152.475553 175.563655 0.66847 104.661109 74.064856 71.302286 49.762783 -18.544537 -17.153579 -3.541344 -6.582642 6.344137 1.366252 2.763669 -1.965178 2.10436 -155.195449 -24.29949 122.142632 95.97665 -70.659801 42.172607 78.539554 -80.917933 49.691919 -42.43568 58.396831 36.302762 -0.062075 -3.58706 -1.128434 -52.459216 -86.654043 -74.250113 -103.173744 -45.373332 -101.348148 16.536304 41.522139 6.81844 -3.191471 -25.838968 5.073846 91.273132 0.622483 -113.973098 -177.400661 26.037276 167.176642 169.578913 63.620575 -169.545091 3.643209 3.554267 -0.670526 75.715 24.203669 -70.144618 19.17104 24.114365 -13.380982 -104.073605 -62.312959 -52.115316 160.673897 -6.668094 -143.243801 -11.538382 -24.897176 1.137668 0.001241 0.022589 -0.007363 -1.041561 50.779726 -11.269902 110.05503 -41.780779 108.12584 147.216501 13.723718 142.781103 179.943139 75.748951 0.046784 145.523164 76.132883 33.534394 2.74518 48.359877 -87.89004 30.414052 -1.371977 50.576192 -179.99642 75.74912 -0.003693 -150.550242 -3.136146 180.0 -32.279675 -81.66431 40.804439 133.412713 85.228142 -58.887896
